<?xml version="1.0" encoding="UTF-8"?>
<svg xmlns="http://www.w3.org/2000/svg" width="900" height="520" viewBox="0 0 900 520">
<rect width="100%" height="100%" fill="#FFFFFF"/>
<text x="450.0" y="28" text-anchor="middle" font-size="18" font-weight="600" font-family="Helvetica,Arial,sans-serif">Content recall</text>
<text x="450.0" y="48" text-anchor="middle" font-size="12" fill="#666" font-family="Helvetica,Arial,sans-serif">Mean over 238 scoreable pages (recall ≥ 0.05)</text>
<line x1="240" y1="70" x2="240" y2="460" stroke="#E6E6E6"/>
<text x="240" y="478" text-anchor="middle" font-size="11" fill="#555" font-family="Helvetica,Arial,sans-serif">0.00</text>
<line x1="385.0" y1="70" x2="385.0" y2="460" stroke="#E6E6E6"/>
<text x="385.0" y="478" text-anchor="middle" font-size="11" fill="#555" font-family="Helvetica,Arial,sans-serif">0.25</text>
<line x1="530.0" y1="70" x2="530.0" y2="460" stroke="#E6E6E6"/>
<text x="530.0" y="478" text-anchor="middle" font-size="11" fill="#555" font-family="Helvetica,Arial,sans-serif">0.50</text>
<line x1="675.0" y1="70" x2="675.0" y2="460" stroke="#E6E6E6"/>
<text x="675.0" y="478" text-anchor="middle" font-size="11" fill="#555" font-family="Helvetica,Arial,sans-serif">0.75</text>
<line x1="820.0" y1="70" x2="820.0" y2="460" stroke="#E6E6E6"/>
<text x="820.0" y="478" text-anchor="middle" font-size="11" fill="#555" font-family="Helvetica,Arial,sans-serif">1.00</text>
<line x1="240" y1="70" x2="240" y2="460" stroke="#222"/>
<line x1="240" y1="460" x2="820" y2="460" stroke="#222"/>
<text x="530.0" y="508" text-anchor="middle" font-size="12" font-family="Helvetica,Arial,sans-serif">Content recall (higher is better)</text>
<rect x="240" y="80.0" width="406.464" height="53.333333333333336" fill="#0B6E4F" rx="3"/>
<text x="230" y="116.26666666666668" text-anchor="end" font-size="13" font-family="Helvetica,Arial,sans-serif">ChromeRAG (coverage)</text>
<text x="654.4639999999999" y="116.26666666666668" font-size="13" font-family="Helvetica,Arial,sans-serif">0.701</text>
<rect x="240" y="143.33333333333334" width="393.356" height="53.333333333333336" fill="#1B9AAA" rx="3"/>
<text x="230" y="179.60000000000002" text-anchor="end" font-size="13" font-family="Helvetica,Arial,sans-serif">ChromeRAG (balanced)</text>
<text x="641.356" y="179.60000000000002" font-size="13" font-family="Helvetica,Arial,sans-serif">0.678</text>
<rect x="240" y="206.66666666666669" width="384.076" height="53.333333333333336" fill="#C47B0A" rx="3"/>
<text x="230" y="242.93333333333337" text-anchor="end" font-size="13" font-family="Helvetica,Arial,sans-serif">Trafilatura</text>
<text x="632.076" y="242.93333333333337" font-size="13" font-family="Helvetica,Arial,sans-serif">0.662</text>
<rect x="240" y="270.0" width="406.986" height="53.333333333333336" fill="#9B2226" rx="3"/>
<text x="230" y="306.26666666666665" text-anchor="end" font-size="13" font-family="Helvetica,Arial,sans-serif">MarkItDown</text>
<text x="654.986" y="306.26666666666665" font-size="13" font-family="Helvetica,Arial,sans-serif">0.702</text>
<rect x="240" y="333.33333333333337" width="319.232" height="53.333333333333336" fill="#3D5A80" rx="3"/>
<text x="230" y="369.6" text-anchor="end" font-size="13" font-family="Helvetica,Arial,sans-serif">ChromeRAG (precision)</text>
<text x="567.232" y="369.6" font-size="13" font-family="Helvetica,Arial,sans-serif">0.550</text>
<rect x="240" y="396.6666666666667" width="264.422" height="53.333333333333336" fill="#5C6770" rx="3"/>
<text x="230" y="432.93333333333334" text-anchor="end" font-size="13" font-family="Helvetica,Arial,sans-serif">Readability</text>
<text x="512.422" y="432.93333333333334" font-size="13" font-family="Helvetica,Arial,sans-serif">0.456</text>
</svg>