<?xml version="1.0" encoding="UTF-8"?>
<svg xmlns="http://www.w3.org/2000/svg" width="720" height="420" viewBox="0 0 720 420">
  <rect width="100%" height="100%" fill="#FFFFFF"/>
  <text x="360.0" y="28" text-anchor="middle" font-size="15" font-weight="600"
        font-family="Helvetica,Arial,sans-serif">Fig. 2 — Content recall</text>
  <text x="18" y="200.0" text-anchor="middle" font-size="11"
        font-family="Helvetica,Arial,sans-serif"
        transform="rotate(-90 18,200.0)">Recall ↑</text>
  <line x1="160" y1="50" x2="160" y2="350" stroke="#222" stroke-width="1"/>
  <line x1="160" y1="350" x2="680" y2="350" stroke="#222" stroke-width="1"/>
  <rect x="172.0" y="139.8" width="72.7" height="210.2" fill="#0B6E4F" rx="2"/><text x="208.3" y="133.8" text-anchor="middle" font-size="11" font-family="Helvetica,Arial,sans-serif">0.701</text><rect x="256.7" y="146.5" width="72.7" height="203.5" fill="#1B9AAA" rx="2"/><text x="293.0" y="140.5" text-anchor="middle" font-size="11" font-family="Helvetica,Arial,sans-serif">0.678</text><rect x="341.3" y="151.3" width="72.7" height="198.7" fill="#E09F3E" rx="2"/><text x="377.7" y="145.3" text-anchor="middle" font-size="11" font-family="Helvetica,Arial,sans-serif">0.662</text><rect x="426.0" y="139.5" width="72.7" height="210.5" fill="#9B2226" rx="2"/><text x="462.3" y="133.5" text-anchor="middle" font-size="11" font-family="Helvetica,Arial,sans-serif">0.702</text><rect x="510.7" y="184.9" width="72.7" height="165.1" fill="#3D5A80" rx="2"/><text x="547.0" y="178.9" text-anchor="middle" font-size="11" font-family="Helvetica,Arial,sans-serif">0.550</text><rect x="595.3" y="213.2" width="72.7" height="136.8" fill="#6C757D" rx="2"/><text x="631.7" y="207.2" text-anchor="middle" font-size="11" font-family="Helvetica,Arial,sans-serif">0.456</text>
  <text x="208.3" y="392" text-anchor="middle" font-size="10" font-family="Helvetica,Arial,sans-serif" transform="rotate(-28 208.3,392)">chromerag_coverage</text><text x="293.0" y="392" text-anchor="middle" font-size="10" font-family="Helvetica,Arial,sans-serif" transform="rotate(-28 293.0,392)">chromerag</text><text x="377.7" y="392" text-anchor="middle" font-size="10" font-family="Helvetica,Arial,sans-serif" transform="rotate(-28 377.7,392)">trafilatura</text><text x="462.3" y="392" text-anchor="middle" font-size="10" font-family="Helvetica,Arial,sans-serif" transform="rotate(-28 462.3,392)">markitdown</text><text x="547.0" y="392" text-anchor="middle" font-size="10" font-family="Helvetica,Arial,sans-serif" transform="rotate(-28 547.0,392)">chromerag_precision</text><text x="631.7" y="392" text-anchor="middle" font-size="10" font-family="Helvetica,Arial,sans-serif" transform="rotate(-28 631.7,392)">readability</text>
  <text x="160" y="412" font-size="9" fill="#555"
        font-family="Helvetica,Arial,sans-serif">Source: corpus_comparison_report.json · higher=better</text>
</svg>
