<svg xmlns="http://www.w3.org/2000/svg" width="468pt" height="200pt" viewBox="0 0 468 200" font-family="Arial, Helvetica, sans-serif"><rect width="468" height="200" fill="#ffffff"/><line x1="71.4" y1="14" x2="71.4" y2="164" stroke="#e4e3df" stroke-width="0.6"/><text x="71.4" y="174.0" font-size="7" text-anchor="middle" font-weight="normal" fill="#52514e" dominant-baseline="auto">0.7</text><line x1="198.3" y1="14" x2="198.3" y2="164" stroke="#e4e3df" stroke-width="0.6"/><text x="198.3" y="174.0" font-size="7" text-anchor="middle" font-weight="normal" fill="#52514e" dominant-baseline="auto">0.8</text><line x1="325.1" y1="14" x2="325.1" y2="164" stroke="#e4e3df" stroke-width="0.6"/><text x="325.1" y="174.0" font-size="7" text-anchor="middle" font-weight="normal" fill="#52514e" dominant-baseline="auto">0.9</text><line x1="452.0" y1="14" x2="452.0" y2="164" stroke="#e4e3df" stroke-width="0.6"/><text x="452.0" y="174.0" font-size="7" text-anchor="middle" font-weight="normal" fill="#52514e" dominant-baseline="auto">1.0</text><line x1="46" y1="164.0" x2="452" y2="164.0" stroke="#e4e3df" stroke-width="0.6"/><text x="42.0" y="166.5" font-size="7" text-anchor="end" font-weight="normal" fill="#52514e" dominant-baseline="auto">0.76</text><line x1="46" y1="121.1" x2="452" y2="121.1" stroke="#e4e3df" stroke-width="0.6"/><text x="42.0" y="123.6" font-size="7" text-anchor="end" font-weight="normal" fill="#52514e" dominant-baseline="auto">0.80</text><line x1="46" y1="78.3" x2="452" y2="78.3" stroke="#e4e3df" stroke-width="0.6"/><text x="42.0" y="80.8" font-size="7" text-anchor="end" font-weight="normal" fill="#52514e" dominant-baseline="auto">0.84</text><line x1="46" y1="35.4" x2="452" y2="35.4" stroke="#e4e3df" stroke-width="0.6"/><text x="42.0" y="37.9" font-size="7" text-anchor="end" font-weight="normal" fill="#52514e" dominant-baseline="auto">0.88</text><text x="249.0" y="186.0" font-size="7.5" text-anchor="middle" font-weight="normal" fill="#52514e" dominant-baseline="auto">Recall</text><text x="12" y="89.0" font-size="7.5" fill="#52514e" text-anchor="middle" transform="rotate(-90 12 89.0)">Precision</text><polyline points="373.3,109.9 363.3,97.2 357.6,90.8 344.7,80.1 325.2,71.3 299.5,61.5 270.2,52.0 234.2,41.0 179.1,40.9" fill="none" stroke="#2a78d6" stroke-width="1.6"/><circle cx="373.3" cy="109.9" r="2.6" fill="#2a78d6" stroke="#ffffff" stroke-width="0.8"/><text x="377.3" y="106.9" font-size="6" text-anchor="start" font-weight="normal" fill="#52514e" dominant-baseline="auto">0.15</text><circle cx="363.3" cy="97.2" r="2.6" fill="#2a78d6" stroke="#ffffff" stroke-width="0.8"/><text x="367.3" y="94.2" font-size="6" text-anchor="start" font-weight="normal" fill="#52514e" dominant-baseline="auto">0.25</text><circle cx="357.6" cy="90.8" r="2.6" fill="#2a78d6" stroke="#ffffff" stroke-width="0.8"/><text x="361.6" y="87.8" font-size="6" text-anchor="start" font-weight="normal" fill="#52514e" dominant-baseline="auto">0.30</text><circle cx="344.7" cy="80.1" r="2.6" fill="#2a78d6" stroke="#ffffff" stroke-width="0.8"/><text x="348.7" y="77.1" font-size="6" text-anchor="start" font-weight="normal" fill="#52514e" dominant-baseline="auto">0.40</text><circle cx="325.2" cy="71.3" r="2.6" fill="#2a78d6" stroke="#ffffff" stroke-width="0.8"/><text x="329.2" y="68.3" font-size="6" text-anchor="start" font-weight="normal" fill="#52514e" dominant-baseline="auto">0.50</text><circle cx="299.5" cy="61.5" r="2.6" fill="#2a78d6" stroke="#ffffff" stroke-width="0.8"/><text x="303.5" y="58.5" font-size="6" text-anchor="start" font-weight="normal" fill="#52514e" dominant-baseline="auto">0.60</text><circle cx="270.2" cy="52.0" r="2.6" fill="#2a78d6" stroke="#ffffff" stroke-width="0.8"/><text x="274.2" y="49.0" font-size="6" text-anchor="start" font-weight="normal" fill="#52514e" dominant-baseline="auto">0.70</text><circle cx="234.2" cy="41.0" r="2.6" fill="#2a78d6" stroke="#ffffff" stroke-width="0.8"/><text x="238.2" y="38.0" font-size="6" text-anchor="start" font-weight="normal" fill="#52514e" dominant-baseline="auto">0.80</text><circle cx="179.1" cy="40.9" r="2.6" fill="#2a78d6" stroke="#ffffff" stroke-width="0.8"/><text x="183.1" y="37.9" font-size="6" text-anchor="start" font-weight="normal" fill="#52514e" dominant-baseline="auto">0.90</text><circle cx="248.3" cy="62.5" r="4" fill="#eb6834" stroke="#ffffff" stroke-width="1"/><text x="241.3" y="74.5" font-size="7.5" text-anchor="end" font-weight="normal" fill="#1f1f1d" dominant-baseline="auto">Trafilatura</text><circle cx="66.8" cy="73.6" r="4" fill="#8a8983" stroke="#ffffff" stroke-width="1"/><text x="73.8" y="76.1" font-size="7.5" text-anchor="start" font-weight="normal" fill="#1f1f1d" dominant-baseline="auto">Readability</text><text x="363.2" y="121.1" font-size="7" text-anchor="middle" font-weight="bold" fill="#2a78d6" dominant-baseline="auto">ChromeRAG: threshold 0.15 to 0.90</text><text x="363.2" y="131.1" font-size="7" text-anchor="middle" font-weight="normal" fill="#52514e" dominant-baseline="auto">(coverage 0.30, balanced 0.50, precision 0.70)</text></svg>