<svg xmlns="http://www.w3.org/2000/svg" width="468pt" height="200pt" viewBox="0 0 468 200" font-family="Arial, Helvetica, sans-serif"><rect width="468" height="200" fill="#ffffff"/><line x1="67.1" y1="14" x2="67.1" y2="164" stroke="#e4e3df" stroke-width="0.6"/><text x="67.1" y="174.0" font-size="7" text-anchor="middle" font-weight="normal" fill="#52514e" dominant-baseline="auto">0.7</text><line x1="172.8" y1="14" x2="172.8" y2="164" stroke="#e4e3df" stroke-width="0.6"/><text x="172.8" y="174.0" font-size="7" text-anchor="middle" font-weight="normal" fill="#52514e" dominant-baseline="auto">0.8</text><line x1="278.4" y1="14" x2="278.4" y2="164" stroke="#e4e3df" stroke-width="0.6"/><text x="278.4" y="174.0" font-size="7" text-anchor="middle" font-weight="normal" fill="#52514e" dominant-baseline="auto">0.9</text><line x1="384.0" y1="14" x2="384.0" y2="164" stroke="#e4e3df" stroke-width="0.6"/><text x="384.0" y="174.0" font-size="7" text-anchor="middle" font-weight="normal" fill="#52514e" dominant-baseline="auto">1.0</text><line x1="46" y1="164.0" x2="384" y2="164.0" stroke="#e4e3df" stroke-width="0.6"/><text x="42.0" y="166.5" font-size="7" text-anchor="end" font-weight="normal" fill="#52514e" dominant-baseline="auto">0.76</text><line x1="46" y1="121.1" x2="384" y2="121.1" stroke="#e4e3df" stroke-width="0.6"/><text x="42.0" y="123.6" font-size="7" text-anchor="end" font-weight="normal" fill="#52514e" dominant-baseline="auto">0.80</text><line x1="46" y1="78.3" x2="384" y2="78.3" stroke="#e4e3df" stroke-width="0.6"/><text x="42.0" y="80.8" font-size="7" text-anchor="end" font-weight="normal" fill="#52514e" dominant-baseline="auto">0.84</text><line x1="46" y1="35.4" x2="384" y2="35.4" stroke="#e4e3df" stroke-width="0.6"/><text x="42.0" y="37.9" font-size="7" text-anchor="end" font-weight="normal" fill="#52514e" dominant-baseline="auto">0.88</text><text x="215.0" y="186.0" font-size="7.5" text-anchor="middle" font-weight="normal" fill="#52514e" dominant-baseline="auto">Recall</text><text x="12" y="89.0" font-size="7.5" fill="#52514e" text-anchor="middle" transform="rotate(-90 12 89.0)">Precision</text><polyline points="318.5,109.9 310.2,97.2 305.4,90.8 294.7,80.1 278.4,71.3 257.1,61.5 232.7,52.0 202.7,41.0 156.8,40.9" fill="none" stroke="#2a78d6" stroke-width="1.6"/><circle cx="318.5" cy="109.9" r="2.6" fill="#2a78d6" stroke="#ffffff" stroke-width="0.8"/><text x="322.5" y="106.9" font-size="6" text-anchor="start" font-weight="normal" fill="#52514e" dominant-baseline="auto">0.15</text><circle cx="310.2" cy="97.2" r="2.6" fill="#2a78d6" stroke="#ffffff" stroke-width="0.8"/><text x="314.2" y="94.2" font-size="6" text-anchor="start" font-weight="normal" fill="#52514e" dominant-baseline="auto">0.25</text><circle cx="305.4" cy="90.8" r="2.6" fill="#2a78d6" stroke="#ffffff" stroke-width="0.8"/><text x="309.4" y="87.8" font-size="6" text-anchor="start" font-weight="normal" fill="#52514e" dominant-baseline="auto">0.30</text><circle cx="294.7" cy="80.1" r="2.6" fill="#2a78d6" stroke="#ffffff" stroke-width="0.8"/><text x="298.7" y="77.1" font-size="6" text-anchor="start" font-weight="normal" fill="#52514e" dominant-baseline="auto">0.40</text><circle cx="278.4" cy="71.3" r="2.6" fill="#2a78d6" stroke="#ffffff" stroke-width="0.8"/><text x="282.4" y="68.3" font-size="6" text-anchor="start" font-weight="normal" fill="#52514e" dominant-baseline="auto">0.50</text><circle cx="257.1" cy="61.5" r="2.6" fill="#2a78d6" stroke="#ffffff" stroke-width="0.8"/><text x="261.1" y="58.5" font-size="6" text-anchor="start" font-weight="normal" fill="#52514e" dominant-baseline="auto">0.60</text><circle cx="232.7" cy="52.0" r="2.6" fill="#2a78d6" stroke="#ffffff" stroke-width="0.8"/><text x="236.7" y="49.0" font-size="6" text-anchor="start" font-weight="normal" fill="#52514e" dominant-baseline="auto">0.70</text><circle cx="202.7" cy="41.0" r="2.6" fill="#2a78d6" stroke="#ffffff" stroke-width="0.8"/><text x="206.7" y="38.0" font-size="6" text-anchor="start" font-weight="normal" fill="#52514e" dominant-baseline="auto">0.80</text><circle cx="156.8" cy="40.9" r="2.6" fill="#2a78d6" stroke="#ffffff" stroke-width="0.8"/><text x="160.8" y="37.9" font-size="6" text-anchor="start" font-weight="normal" fill="#52514e" dominant-baseline="auto">0.90</text><circle cx="214.4" cy="62.5" r="4" fill="#eb6834" stroke="#ffffff" stroke-width="1"/><text x="207.4" y="74.5" font-size="7.5" text-anchor="end" font-weight="normal" fill="#1f1f1d" dominant-baseline="auto">Trafilatura</text><circle cx="63.3" cy="73.6" r="4" fill="#8a8983" stroke="#ffffff" stroke-width="1"/><text x="70.3" y="76.1" font-size="7.5" text-anchor="start" font-weight="normal" fill="#1f1f1d" dominant-baseline="auto">Readability</text><text x="392.0" y="26.0" font-size="7.5" text-anchor="start" font-weight="bold" fill="#2a78d6" dominant-baseline="auto">ChromeRAG:</text><text x="392.0" y="37.0" font-size="7" text-anchor="start" font-weight="normal" fill="#52514e" dominant-baseline="auto">threshold 0.15 to 0.90</text><text x="392.0" y="48.0" font-size="7" text-anchor="start" font-weight="normal" fill="#52514e" dominant-baseline="auto">(coverage 0.30,</text><text x="392.0" y="58.0" font-size="7" text-anchor="start" font-weight="normal" fill="#52514e" dominant-baseline="auto">balanced 0.50,</text><text x="392.0" y="68.0" font-size="7" text-anchor="start" font-weight="normal" fill="#52514e" dominant-baseline="auto">precision 0.70)</text></svg>