<svg xmlns="http://www.w3.org/2000/svg" width="468pt" height="196pt" viewBox="0 0 468 196" font-family="Arial, Helvetica, sans-serif"><rect width="468" height="196" fill="#ffffff"/><text x="4.0" y="12" font-size="7.5" fill="#52514e"><tspan font-size="9" font-weight="bold" fill="#1f1f1d">(a)</tspan><tspan dx="6">Fresh pages (328), vs Trafilatura</tspan></text><line x1="155.0" y1="26" x2="155.0" y2="150.0" stroke="#8a8983" stroke-width="0.8"/><line x1="92.0" y1="26" x2="92.0" y2="150.0" stroke="#e4e3df" stroke-width="0.6"/><text x="92.0" y="159.0" font-size="6.5" text-anchor="middle" font-weight="normal" fill="#52514e" dominant-baseline="auto">-1.0</text><line x1="123.5" y1="26" x2="123.5" y2="150.0" stroke="#e4e3df" stroke-width="0.6"/><text x="123.5" y="159.0" font-size="6.5" text-anchor="middle" font-weight="normal" fill="#52514e" dominant-baseline="auto">-0.5</text><line x1="155.0" y1="26" x2="155.0" y2="150.0" stroke="#e4e3df" stroke-width="0.6"/><text x="155.0" y="159.0" font-size="6.5" text-anchor="middle" font-weight="normal" fill="#52514e" dominant-baseline="auto">0</text><line x1="186.5" y1="26" x2="186.5" y2="150.0" stroke="#e4e3df" stroke-width="0.6"/><text x="186.5" y="159.0" font-size="6.5" text-anchor="middle" font-weight="normal" fill="#52514e" dominant-baseline="auto">+0.5</text><line x1="218.0" y1="26" x2="218.0" y2="150.0" stroke="#e4e3df" stroke-width="0.6"/><text x="218.0" y="159.0" font-size="6.5" text-anchor="middle" font-weight="normal" fill="#52514e" dominant-baseline="auto">+1.0</text><text x="155.0" y="170.0" font-size="7" text-anchor="middle" font-weight="normal" fill="#52514e" dominant-baseline="auto">Net score (wins − losses) / pairs</text><text x="86.0" y="44.5" font-size="7" text-anchor="end" font-weight="normal" fill="#1f1f1d" dominant-baseline="auto">Article (130)</text><line x1="166.6" y1="42.0" x2="183.1" y2="42.0" stroke="#7c3aed" stroke-width="1.4" opacity="0.55"/><circle cx="174.9" cy="42.0" r="2.8" fill="#7c3aed" stroke="#ffffff" stroke-width="0.7"/><line x1="149.7" y1="46.0" x2="169.5" y2="46.0" stroke="#1a7f37" stroke-width="1.4" opacity="0.55"/><circle cx="159.4" cy="46.0" r="2.8" fill="#1a7f37" stroke="#ffffff" stroke-width="0.7"/><line x1="169.1" y1="50.0" x2="187.5" y2="50.0" stroke="#c77d0a" stroke-width="1.4" opacity="0.55"/><circle cx="178.3" cy="50.0" r="2.8" fill="#c77d0a" stroke="#ffffff" stroke-width="0.7"/><text x="86.0" y="68.5" font-size="7" text-anchor="end" font-weight="normal" fill="#1f1f1d" dominant-baseline="auto">Service (112)</text><line x1="164.0" y1="66.0" x2="184.8" y2="66.0" stroke="#7c3aed" stroke-width="1.4" opacity="0.55"/><circle cx="174.7" cy="66.0" r="2.8" fill="#7c3aed" stroke="#ffffff" stroke-width="0.7"/><line x1="154.4" y1="70.0" x2="176.9" y2="70.0" stroke="#1a7f37" stroke-width="1.4" opacity="0.55"/><circle cx="165.7" cy="70.0" r="2.8" fill="#1a7f37" stroke="#ffffff" stroke-width="0.7"/><line x1="165.7" y1="74.0" x2="187.1" y2="74.0" stroke="#c77d0a" stroke-width="1.4" opacity="0.55"/><circle cx="176.4" cy="74.0" r="2.8" fill="#c77d0a" stroke="#ffffff" stroke-width="0.7"/><text x="86.0" y="92.5" font-size="7" text-anchor="end" font-weight="normal" fill="#1f1f1d" dominant-baseline="auto">Forum (56)</text><line x1="207.9" y1="90.0" x2="218.0" y2="90.0" stroke="#7c3aed" stroke-width="1.4" opacity="0.55"/><circle cx="213.5" cy="90.0" r="2.8" fill="#7c3aed" stroke="#ffffff" stroke-width="0.7"/><line x1="170.8" y1="94.0" x2="198.9" y2="94.0" stroke="#1a7f37" stroke-width="1.4" opacity="0.55"/><circle cx="185.4" cy="94.0" r="2.8" fill="#1a7f37" stroke="#ffffff" stroke-width="0.7"/><line x1="205.6" y1="98.0" x2="218.0" y2="98.0" stroke="#c77d0a" stroke-width="1.4" opacity="0.55"/><circle cx="212.4" cy="98.0" r="2.8" fill="#c77d0a" stroke="#ffffff" stroke-width="0.7"/><text x="86.0" y="116.5" font-size="7" text-anchor="end" font-weight="normal" fill="#1f1f1d" dominant-baseline="auto">Listing (30)</text><line x1="150.8" y1="114.0" x2="190.7" y2="114.0" stroke="#7c3aed" stroke-width="1.4" opacity="0.55"/><circle cx="171.8" cy="114.0" r="2.8" fill="#7c3aed" stroke="#ffffff" stroke-width="0.7"/><line x1="150.8" y1="118.0" x2="192.8" y2="118.0" stroke="#1a7f37" stroke-width="1.4" opacity="0.55"/><circle cx="171.8" cy="118.0" r="2.8" fill="#1a7f37" stroke="#ffffff" stroke-width="0.7"/><line x1="155.0" y1="122.0" x2="197.0" y2="122.0" stroke="#c77d0a" stroke-width="1.4" opacity="0.55"/><circle cx="176.0" cy="122.0" r="2.8" fill="#c77d0a" stroke="#ffffff" stroke-width="0.7"/><text x="86.0" y="140.5" font-size="7" text-anchor="end" font-weight="bold" fill="#1f1f1d" dominant-baseline="auto">All (328)</text><line x1="175.6" y1="138.0" x2="186.5" y2="138.0" stroke="#7c3aed" stroke-width="1.4" opacity="0.55"/><circle cx="181.1" cy="138.0" r="2.8" fill="#7c3aed" stroke="#ffffff" stroke-width="0.7"/><line x1="160.8" y1="142.0" x2="173.4" y2="142.0" stroke="#1a7f37" stroke-width="1.4" opacity="0.55"/><circle cx="167.1" cy="142.0" r="2.8" fill="#1a7f37" stroke="#ffffff" stroke-width="0.7"/><line x1="177.3" y1="146.0" x2="188.8" y2="146.0" stroke="#c77d0a" stroke-width="1.4" opacity="0.55"/><circle cx="183.2" cy="146.0" r="2.8" fill="#c77d0a" stroke="#ffffff" stroke-width="0.7"/><line x1="92.0" y1="26" x2="92.0" y2="150.0" stroke="#52514e" stroke-width="0.8"/><text x="246.0" y="12" font-size="7.5" fill="#52514e"><tspan font-size="9" font-weight="bold" fill="#1f1f1d">(b)</tspan><tspan dx="6">WCXB clean (367), vs Trafilatura</tspan></text><line x1="397.0" y1="26" x2="397.0" y2="150.0" stroke="#8a8983" stroke-width="0.8"/><line x1="334.0" y1="26" x2="334.0" y2="150.0" stroke="#e4e3df" stroke-width="0.6"/><text x="334.0" y="159.0" font-size="6.5" text-anchor="middle" font-weight="normal" fill="#52514e" dominant-baseline="auto">-1.0</text><line x1="365.5" y1="26" x2="365.5" y2="150.0" stroke="#e4e3df" stroke-width="0.6"/><text x="365.5" y="159.0" font-size="6.5" text-anchor="middle" font-weight="normal" fill="#52514e" dominant-baseline="auto">-0.5</text><line x1="397.0" y1="26" x2="397.0" y2="150.0" stroke="#e4e3df" stroke-width="0.6"/><text x="397.0" y="159.0" font-size="6.5" text-anchor="middle" font-weight="normal" fill="#52514e" dominant-baseline="auto">0</text><line x1="428.5" y1="26" x2="428.5" y2="150.0" stroke="#e4e3df" stroke-width="0.6"/><text x="428.5" y="159.0" font-size="6.5" text-anchor="middle" font-weight="normal" fill="#52514e" dominant-baseline="auto">+0.5</text><line x1="460.0" y1="26" x2="460.0" y2="150.0" stroke="#e4e3df" stroke-width="0.6"/><text x="460.0" y="159.0" font-size="6.5" text-anchor="middle" font-weight="normal" fill="#52514e" dominant-baseline="auto">+1.0</text><text x="397.0" y="170.0" font-size="7" text-anchor="middle" font-weight="normal" fill="#52514e" dominant-baseline="auto">Net score (wins − losses) / pairs</text><text x="328.0" y="40.0" font-size="7" text-anchor="end" font-weight="normal" fill="#1f1f1d" dominant-baseline="auto">Article (178)</text><line x1="403.0" y1="37.5" x2="418.6" y2="37.5" stroke="#7c3aed" stroke-width="1.4" opacity="0.55"/><circle cx="410.8" cy="37.5" r="2.8" fill="#7c3aed" stroke="#ffffff" stroke-width="0.7"/><line x1="397.4" y1="41.5" x2="415.1" y2="41.5" stroke="#1a7f37" stroke-width="1.4" opacity="0.55"/><circle cx="406.2" cy="41.5" r="2.8" fill="#1a7f37" stroke="#ffffff" stroke-width="0.7"/><text x="328.0" y="55.0" font-size="7" text-anchor="end" font-weight="normal" fill="#1f1f1d" dominant-baseline="auto">Documentation (40)</text><line x1="374.9" y1="52.5" x2="409.6" y2="52.5" stroke="#7c3aed" stroke-width="1.4" opacity="0.55"/><circle cx="392.3" cy="52.5" r="2.8" fill="#7c3aed" stroke="#ffffff" stroke-width="0.7"/><line x1="374.9" y1="56.5" x2="409.6" y2="56.5" stroke="#1a7f37" stroke-width="1.4" opacity="0.55"/><circle cx="392.3" cy="56.5" r="2.8" fill="#1a7f37" stroke="#ffffff" stroke-width="0.7"/><text x="328.0" y="70.0" font-size="7" text-anchor="end" font-weight="normal" fill="#1f1f1d" dominant-baseline="auto">Service (54)</text><line x1="409.8" y1="67.5" x2="435.5" y2="67.5" stroke="#7c3aed" stroke-width="1.4" opacity="0.55"/><circle cx="422.7" cy="67.5" r="2.8" fill="#7c3aed" stroke="#ffffff" stroke-width="0.7"/><line x1="415.7" y1="71.5" x2="442.5" y2="71.5" stroke="#1a7f37" stroke-width="1.4" opacity="0.55"/><circle cx="429.7" cy="71.5" r="2.8" fill="#1a7f37" stroke="#ffffff" stroke-width="0.7"/><text x="328.0" y="85.0" font-size="7" text-anchor="end" font-weight="normal" fill="#1f1f1d" dominant-baseline="auto">Forum (50)</text><line x1="427.2" y1="82.5" x2="451.2" y2="82.5" stroke="#7c3aed" stroke-width="1.4" opacity="0.55"/><circle cx="439.8" cy="82.5" r="2.8" fill="#7c3aed" stroke="#ffffff" stroke-width="0.7"/><line x1="419.7" y1="86.5" x2="447.4" y2="86.5" stroke="#1a7f37" stroke-width="1.4" opacity="0.55"/><circle cx="434.8" cy="86.5" r="2.8" fill="#1a7f37" stroke="#ffffff" stroke-width="0.7"/><text x="328.0" y="100.0" font-size="7" text-anchor="end" font-weight="normal" fill="#1f1f1d" dominant-baseline="auto">Product (2)</text><line x1="397.0" y1="97.5" x2="397.0" y2="97.5" stroke="#7c3aed" stroke-width="1.4" opacity="0.55"/><circle cx="397.0" cy="97.5" r="2.8" fill="#7c3aed" stroke="#ffffff" stroke-width="0.7"/><line x1="397.0" y1="101.5" x2="397.0" y2="101.5" stroke="#1a7f37" stroke-width="1.4" opacity="0.55"/><circle cx="397.0" cy="101.5" r="2.8" fill="#1a7f37" stroke="#ffffff" stroke-width="0.7"/><text x="328.0" y="115.0" font-size="7" text-anchor="end" font-weight="normal" fill="#1f1f1d" dominant-baseline="auto">Collection (8)</text><line x1="373.4" y1="112.5" x2="436.4" y2="112.5" stroke="#7c3aed" stroke-width="1.4" opacity="0.55"/><circle cx="404.9" cy="112.5" r="2.8" fill="#7c3aed" stroke="#ffffff" stroke-width="0.7"/><line x1="349.8" y1="116.5" x2="428.5" y2="116.5" stroke="#1a7f37" stroke-width="1.4" opacity="0.55"/><circle cx="389.1" cy="116.5" r="2.8" fill="#1a7f37" stroke="#ffffff" stroke-width="0.7"/><text x="328.0" y="130.0" font-size="7" text-anchor="end" font-weight="normal" fill="#1f1f1d" dominant-baseline="auto">Listing (35)</text><line x1="377.2" y1="127.5" x2="416.8" y2="127.5" stroke="#7c3aed" stroke-width="1.4" opacity="0.55"/><circle cx="397.0" cy="127.5" r="2.8" fill="#7c3aed" stroke="#ffffff" stroke-width="0.7"/><line x1="380.8" y1="131.5" x2="420.4" y2="131.5" stroke="#1a7f37" stroke-width="1.4" opacity="0.55"/><circle cx="400.6" cy="131.5" r="2.8" fill="#1a7f37" stroke="#ffffff" stroke-width="0.7"/><text x="328.0" y="145.0" font-size="7" text-anchor="end" font-weight="bold" fill="#1f1f1d" dominant-baseline="auto">All (367)</text><line x1="407.3" y1="142.5" x2="418.5" y2="142.5" stroke="#7c3aed" stroke-width="1.4" opacity="0.55"/><circle cx="413.0" cy="142.5" r="2.8" fill="#7c3aed" stroke="#ffffff" stroke-width="0.7"/><line x1="404.9" y1="146.5" x2="416.9" y2="146.5" stroke="#1a7f37" stroke-width="1.4" opacity="0.55"/><circle cx="411.1" cy="146.5" r="2.8" fill="#1a7f37" stroke="#ffffff" stroke-width="0.7"/><line x1="334.0" y1="26" x2="334.0" y2="150.0" stroke="#52514e" stroke-width="0.8"/><circle cx="92.0" cy="188.0" r="2.8" fill="#7c3aed"/><text x="98.0" y="190.5" font-size="7" text-anchor="start" font-weight="normal" fill="#52514e" dominant-baseline="auto">Claude</text><circle cx="144.0" cy="188.0" r="2.8" fill="#1a7f37"/><text x="150.0" y="190.5" font-size="7" text-anchor="start" font-weight="normal" fill="#52514e" dominant-baseline="auto">GPT</text><circle cx="196.0" cy="188.0" r="2.8" fill="#c77d0a"/><text x="202.0" y="190.5" font-size="7" text-anchor="start" font-weight="normal" fill="#52514e" dominant-baseline="auto">Gemini (bars: 95% interval)</text></svg>